<?xml version="1.0" encoding="iso-8859-1"?>
<!-- Uploaded to: SVG Repo, www.svgrepo.com, Generator: SVG Repo Mixer Tools -->
<svg height="800px" width="800px" version="1.1" id="Layer_1" xmlns="http://www.w3.org/2000/svg" xmlns:xlink="http://www.w3.org/1999/xlink" 
	 viewBox="0 0 511.999 511.999" xml:space="preserve">
<path style="fill:#CCD8E5;" d="M503.665,66.8v316.343c0,17.909-14.509,32.429-32.417,32.429H40.754
	c-17.909,0-32.418-14.52-32.418-32.429V66.8c0-17.909,14.509-32.429,32.418-32.429h430.493
	C489.155,34.371,503.665,48.891,503.665,66.8z"/>
<path style="fill:#DFEAF4;" d="M503.665,66.8v316.343c0,17.909-14.509,32.429-32.417,32.429H183.344l23.752-57.925L339.655,34.371
	h131.592C489.155,34.371,503.665,48.891,503.665,66.8z"/>
<path style="fill:#B8E9F2;" d="M503.665,66.8v290.847H8.337V66.8c0-17.909,14.509-32.429,32.418-32.429h430.493
	C489.155,34.371,503.665,48.891,503.665,66.8z"/>
<path style="fill:#D4F7FC;" d="M503.665,66.8v290.847H207.097L339.655,34.371h131.592C489.155,34.371,503.665,48.891,503.665,66.8z"
	/>
<polygon style="fill:#CCD8E5;" points="343.454,480.173 168.547,480.173 181.034,450.955 196.165,415.571 315.836,415.571 
	330.967,450.955 "/>
<polygon style="fill:#BAC6D1;" points="330.967,450.955 181.034,450.955 196.165,415.571 315.836,415.571 "/>
<polyline style="fill:#E8C262;" points="128.803,160.051 128.803,285.992 253.223,285.992 253.223,106.025 "/>
<g>
	<polyline style="fill:#D3AC54;" points="383.199,160.051 383.199,285.992 253.223,285.992 253.223,122.656 	"/>
	<polygon style="fill:#D3AC54;" points="383.199,106.025 253.223,106.025 284.884,160.051 414.859,160.051 	"/>
</g>
<polygon style="fill:#E8C262;" points="128.803,106.025 253.223,106.025 221.563,160.051 97.144,160.051 "/>
<path d="M422.046,154.563l-31.66-54.025c-1.495-2.552-4.232-4.119-7.189-4.119H128.803c-2.957,0-5.694,1.568-7.189,4.119
	l-31.661,54.025c-1.51,2.576-1.525,5.764-0.04,8.355c1.484,2.592,4.242,4.189,7.229,4.189h23.329v117.608
	c0,4.602,3.729,8.332,8.332,8.332h254.394c4.603,0,8.332-3.731,8.332-8.332V167.107h23.328c2.986,0,5.745-1.598,7.229-4.189
	C423.573,160.326,423.557,157.139,422.046,154.563z M133.578,113.082h105.105l-21.896,37.361H111.683L133.578,113.082z
	 M137.136,167.107h84.427c2.957,0,5.694-1.568,7.189-4.119l16.14-27.542v140.937H137.136V167.107z M374.867,276.384h-113.31V135.448
	l16.139,27.54c1.495,2.552,4.232,4.119,7.189,4.119h89.982L374.867,276.384L374.867,276.384z M289.658,150.443l-21.895-37.361
	h110.659l21.895,37.361H289.658z"/>
<path d="M471.246,24.766H40.754C18.283,24.766,0,43.049,0,65.52v59.227c0,4.602,3.731,8.332,8.332,8.332s8.332-3.731,8.332-8.332
	V65.52c0-13.284,10.807-24.09,24.09-24.09h430.492c13.284,0,24.09,10.807,24.09,24.09v284.411h-52.21
	c-4.602,0-8.332,3.731-8.332,8.332s3.731,8.332,8.332,8.332h52.21v15.273c0,13.284-10.807,24.09-24.09,24.09h-155.41H196.164H40.754
	c-13.284,0-24.09-10.807-24.09-24.09v-15.273h398.688c4.602,0,8.332-3.731,8.332-8.332s-3.731-8.332-8.332-8.332H16.664V152.522
	c0-4.602-3.731-8.332-8.332-8.332S0,147.92,0,152.522v229.348c0,22.472,18.283,40.754,40.754,40.754H183.54l-20.494,47.945h-40.034
	c-4.602,0-8.332,3.731-8.332,8.332s3.731,8.332,8.332,8.332h265.975c4.602,0,8.332-3.731,8.332-8.332s-3.731-8.332-8.332-8.332
	h-40.034l-20.494-47.945h142.786c22.472,0,40.754-18.282,40.754-40.754V65.52C512,43.049,493.717,24.766,471.246,24.766z
	 M330.83,470.568H181.17l14.238-33.31h121.185L330.83,470.568z"/>
<path d="M253.972,376.221c-3.517,0.879-6.116,4.048-6.291,7.67c-0.364,7.534,9.106,11.629,14.33,6.172
	c2.663-2.782,3.078-7.177,0.913-10.385C261.01,376.772,257.341,375.379,253.972,376.221z"/>
</svg>